<svg width="159" height="154" viewBox="0 0 159 154" fill="none" xmlns="http://www.w3.org/2000/svg">
<circle cx="79" cy="77" r="77" fill="#211E1E"/>
<path d="M49.1329 65.1238C50.284 64.7258 51.4063 64.7156 52.4996 65.093C53.593 65.4705 54.3249 66.1951 54.6954 67.2669C54.8921 67.8358 54.8957 68.3605 54.7063 68.8407C54.5168 69.321 54.1905 69.6412 53.7274 69.8013C53.2643 69.9614 52.8732 70.0299 52.5542 70.0069C52.5207 69.7815 52.4628 69.5497 52.3804 69.3115C52.079 68.4825 51.6406 67.8786 51.0653 67.4998C50.4854 67.1078 49.8117 67.0444 49.0443 67.3097C48.2901 67.5704 47.6734 68.0577 47.1943 68.7714C47.0027 69.4598 46.9566 70.2904 47.056 71.2634C47.1553 72.2363 47.3559 73.1594 47.6578 74.0327C48.161 75.4882 48.862 76.616 49.7608 77.4163C50.6683 78.1987 51.7174 78.3841 52.9083 77.9724C54.0065 77.5927 54.6034 76.9198 54.6989 75.9535C54.8046 75.1023 54.6493 74.0746 54.233 72.8705C54.9078 72.6372 55.5136 72.5685 56.0504 72.6644C56.5826 72.747 56.9448 73.0662 57.1369 73.622C57.5852 74.9187 57.389 76.1937 56.5485 77.4472C55.7033 78.6874 54.5662 79.5545 53.1372 80.0486C51.2716 80.6935 49.6431 80.5677 48.2517 79.6711C46.8558 78.7613 45.7919 77.2478 45.06 75.1308C44.3281 73.0137 44.3058 70.9995 44.993 69.088C45.6888 67.1588 47.0688 65.8374 49.1329 65.1238ZM63.7418 76.3824C62.2863 76.8856 61.0682 76.8327 60.0873 76.2237C59.102 75.6015 58.3463 74.5296 57.8202 73.008C57.2896 71.4731 57.2863 69.9855 57.8105 68.5452C58.3347 67.1049 59.3112 66.1377 60.7403 65.6437C63.6777 64.6282 65.7182 65.7744 66.8618 69.0823C67.397 70.6304 67.3758 72.1116 66.7982 73.5259C66.2161 74.9271 65.1972 75.8792 63.7418 76.3824ZM59.4309 68.5405C59.458 69.3903 59.6043 70.1989 59.8696 70.9663C60.1349 71.7338 60.3672 72.32 60.5665 72.7251C60.7658 73.1303 61.0114 73.5194 61.3034 73.8925C61.905 74.6473 62.6491 74.8715 63.5356 74.565C64.4354 74.2539 64.9418 73.8122 65.055 73.2398C65.1815 72.6628 65.0731 71.8782 64.73 70.8858C63.7557 68.0675 62.6003 66.8893 61.2639 67.3513C60.4965 67.6166 59.8855 68.013 59.4309 68.5405ZM71.4894 57.0392C71.8579 56.7341 72.2671 56.5037 72.717 56.3482C73.1669 56.1927 73.59 56.2168 73.9863 56.4204C74.378 56.6109 74.6516 56.9311 74.8072 57.3809C74.9581 57.8176 75.2533 58.8858 75.6928 60.5855C76.1277 62.2719 76.6219 63.9157 77.1754 65.5167C77.7244 67.1045 78.4687 68.7432 79.4083 70.4329C78.9869 70.7564 78.5181 71.0073 78.0021 71.1857C77.1288 71.4876 76.4795 71.0233 76.0541 69.7928C75.9123 69.3826 75.7444 68.6185 75.5504 67.5005C75.4018 68.8702 75.2076 69.9151 74.9676 70.635C74.7409 71.3503 74.4636 71.898 74.1358 72.278C73.8166 72.6401 73.4321 72.899 72.9822 73.0545C71.9766 73.4022 71.0745 73.2993 70.2758 72.7459C69.4904 72.1879 68.9101 71.3664 68.535 70.2814C68.1599 69.1964 67.9995 68.1112 68.0539 67.0259C68.1169 65.9228 68.429 64.9187 68.9901 64.0137C69.5598 63.0909 70.288 62.4762 71.1745 62.1697C72.061 61.8633 72.8696 61.717 73.6003 61.731C72.9837 60.0333 72.2801 58.4694 71.4894 57.0392ZM74.1835 63.4181C73.4528 63.4041 72.7104 63.5274 71.9562 63.7881C71.202 64.0489 70.6291 64.4914 70.2376 65.1155C70.1582 66.3428 70.3473 67.6181 70.8047 68.9412C71.0151 69.5499 71.3024 70.1023 71.6665 70.5986C72.0307 71.0948 72.4112 71.2744 72.8082 71.1371C73.4168 70.9267 73.8693 70.0074 74.1655 68.3792C74.4751 66.7465 74.481 65.0928 74.1835 63.4181ZM77.9981 60.144C78.3803 59.8785 78.7831 59.6726 79.2065 59.5262C79.6432 59.3753 80.0594 59.3795 80.4552 59.5389C80.851 59.6984 81.1221 59.9898 81.2685 60.4132C81.4103 60.8234 81.5869 61.5696 81.7981 62.652C82.018 63.7166 82.2263 64.5334 82.423 65.1023C82.9354 66.5843 83.5157 67.8131 84.1641 68.7888C83.8088 69.0894 83.393 69.322 82.9167 69.4867C82.4403 69.6514 82.0266 69.6759 81.6756 69.5602C81.32 69.4314 81.0712 69.1618 80.9294 68.7516C80.7831 68.3282 80.6246 67.6127 80.454 66.6052C80.2834 65.5976 80.0906 64.7829 79.8756 64.161C79.3038 62.5071 78.678 61.1681 77.9981 60.144ZM76.7054 55.5693C77.0953 55.1975 77.5152 54.9338 77.9651 54.7783C78.4149 54.6228 78.7869 54.6275 79.0809 54.7925C79.3836 54.9396 79.6127 55.2382 79.7683 55.688C79.9238 56.1379 79.9089 56.5875 79.7235 57.0367C79.5513 57.4813 79.2271 57.786 78.7507 57.9507C77.7716 58.2892 77.1059 57.949 76.7537 56.9302C76.5982 56.4803 76.5821 56.0267 76.7054 55.5693ZM92.8644 57.0709L94.1755 61.5059C94.5918 62.71 95.1841 63.8236 95.9526 64.8466C95.637 65.1335 95.241 65.3593 94.7647 65.5239C93.64 65.9128 92.8604 65.4787 92.4258 64.2217C92.2291 63.6527 91.9726 62.6749 91.6561 61.2882C91.335 59.8882 91.1151 59.0162 90.9961 58.6722C90.7674 58.0106 90.3553 57.7828 89.7599 57.9886C89.3233 58.1396 88.9369 58.6287 88.6007 59.4559C88.2732 60.2653 88.0459 61.129 87.9189 62.0469C87.8005 62.947 87.7951 63.6599 87.9028 64.1855C88.3125 65.1993 88.7856 66.1393 89.3221 67.0056C88.9536 67.3107 88.5378 67.5434 88.0747 67.7035C87.6248 67.859 87.2177 67.8812 86.8534 67.7702C86.4978 67.6413 86.2537 67.385 86.121 67.0013C85.9838 66.6043 85.8009 65.8825 85.5723 64.8357C85.3392 63.7757 85.051 62.7495 84.708 61.7571C84.3603 60.7515 83.8102 59.653 83.0576 58.4615C83.4261 58.1564 83.8485 57.9214 84.3248 57.7568C84.8012 57.5921 85.2329 57.5984 85.6201 57.7756C86.0205 57.9482 86.2916 58.2396 86.4334 58.6498C86.5752 59.06 86.7487 59.7333 86.9539 60.6696C87.1319 59.5563 87.5033 58.5096 88.068 57.5292C88.6281 56.5357 89.3117 55.8994 90.1188 55.6204C91.4552 55.1584 92.3704 55.6419 92.8644 57.0709ZM101.945 53.776C101.171 53.8068 100.439 53.9411 99.7512 54.179C99.0632 54.4168 98.4857 54.8461 98.0189 55.4667C97.8719 56.584 97.9837 57.6786 98.3542 58.7503C98.5692 59.3722 98.8656 59.9511 99.2435 60.4871C99.6168 61.0098 100.002 61.2026 100.399 61.0653C100.849 60.9098 101.229 60.0599 101.539 58.5157C101.85 56.9715 101.985 55.3916 101.945 53.776ZM102.913 66.2175C103.76 65.9248 104.321 65.405 104.596 64.6581C104.871 63.9112 104.851 63.0813 104.535 62.1683C104.38 61.7184 104.12 61.0749 103.757 60.2377C103.406 59.396 103.163 58.7988 103.026 58.4461C102.654 60.4116 102.181 61.7008 101.608 62.3137C101.315 62.6225 100.97 62.8455 100.573 62.9827C99.5805 63.3258 98.6781 63.2008 97.8657 62.6076C97.0533 62.0145 96.4527 61.1556 96.0639 60.0309C95.5333 58.4961 95.5453 56.9884 96.1 55.5079C96.6634 54.0096 97.6794 53.0065 99.1481 52.4988C100.63 51.9865 102.214 51.7276 103.901 51.7221C103.994 53.2751 104.276 54.7331 104.747 56.0959C104.971 56.7443 105.296 57.5354 105.723 58.4693C106.145 59.3899 106.436 60.0818 106.596 60.5449C107.159 62.1724 107.107 63.6938 106.441 65.1091C105.779 66.5377 104.641 67.531 103.027 68.0891C102.074 68.4184 101.19 68.5168 100.374 68.3842C99.5755 68.2602 99.0437 67.8145 98.7784 67.0471C98.6137 66.5708 98.6528 66.1054 98.8957 65.6512C99.1386 65.1969 99.5048 64.8851 99.9944 64.7158C100.1 64.6792 100.237 64.6467 100.405 64.6183C100.425 64.804 100.458 64.963 100.503 65.0954C100.668 65.5717 100.988 65.9201 101.465 66.1406C101.941 66.3612 102.424 66.3868 102.913 66.2175ZM37.1083 97.7684C38.4164 96.7533 39.8644 95.9713 41.4522 95.4224C43.0399 94.8734 44.4731 94.7557 45.7517 95.0691C47.0303 95.3826 47.9098 96.2339 48.3901 97.6233C48.8704 99.0126 48.7856 100.353 48.1359 101.644C47.4815 102.922 46.4663 103.799 45.0902 104.275C44.0846 104.622 43.4491 104.412 43.1838 103.645C43.1015 103.407 43.0609 103.139 43.062 102.843C43.4513 102.812 43.7915 102.746 44.0826 102.645C44.9956 102.33 45.5967 101.84 45.886 101.178C46.1885 100.51 46.1865 99.7331 45.88 98.8465C45.5689 97.9468 45.0865 97.3655 44.4328 97.1027C43.779 96.8399 43.0023 96.864 42.1025 97.1751C41.6394 97.3352 41.1045 97.609 40.4978 97.9965C40.9546 99.6605 41.4003 101.121 41.8349 102.378C43.0517 105.898 44.0712 108.397 44.8934 109.875C44.5249 110.18 44.1024 110.415 43.6261 110.58C43.1498 110.745 42.6804 110.737 42.2179 110.556C41.7687 110.37 41.4571 110.026 41.2833 109.523C41.1095 109.021 40.8737 108.125 40.5761 106.835C40.2738 105.532 39.9923 104.504 39.7316 103.75C38.9356 101.447 38.0612 99.4536 37.1083 97.7684ZM56.1433 105.986C55.788 106.287 55.3788 106.517 54.9157 106.677C54.4526 106.837 54.0389 106.862 53.6746 106.751C53.319 106.622 53.0748 106.365 52.9422 105.982C52.8049 105.585 52.6175 104.85 52.3798 103.776C52.142 102.703 51.8562 101.684 51.5223 100.718C51.1838 99.7385 50.6359 98.6466 49.8787 97.4419C50.2473 97.1367 50.6366 96.9132 51.0468 96.7714C51.457 96.6296 51.8556 96.6473 52.2428 96.8246C52.6432 96.9972 52.9234 97.3151 53.0835 97.7782C53.1659 98.0164 53.2497 98.3874 53.335 98.8911C53.4157 99.3817 53.4906 99.7483 53.5597 99.9911C53.6686 98.6351 53.9594 97.505 54.4319 96.601C54.9131 95.6792 55.5044 95.0971 56.2056 94.8546C56.6952 94.6854 57.145 94.7224 57.555 94.9658C57.9651 95.2092 58.2616 95.5955 58.4445 96.1248C58.6229 96.6408 58.637 97.11 58.4867 97.5323C58.3319 97.9413 58.056 98.2144 57.659 98.3517C57.2753 98.4843 56.9507 98.5521 56.685 98.5551C56.6698 98.3826 56.6394 98.2302 56.5936 98.0979C56.4061 97.5554 56.1205 97.3504 55.7367 97.4831C55.1545 97.6844 54.809 98.463 54.7001 99.819C54.5998 101.157 54.6398 102.365 54.82 103.444C55.2293 104.413 55.6703 105.261 56.1433 105.986ZM66.0735 103.086C64.618 103.589 63.3999 103.536 62.4191 102.928C61.4337 102.305 60.678 101.233 60.1519 99.7118C59.6213 98.1769 59.6181 96.6893 60.1422 95.249C60.6664 93.8087 61.643 92.8415 63.072 92.3475C66.0094 91.332 68.0499 92.4782 69.1935 95.7861C69.7287 97.3342 69.7075 98.8154 69.1299 100.23C68.5478 101.631 67.529 102.583 66.0735 103.086ZM61.7626 95.2443C61.7898 96.0941 61.936 96.9027 62.2013 97.6701C62.4666 98.4376 62.6989 99.0238 62.8982 99.4289C63.0976 99.8341 63.3432 100.223 63.6351 100.596C64.2368 101.351 64.9808 101.575 65.8674 101.269C66.7671 100.958 67.2736 100.516 67.3868 99.9436C67.5132 99.3666 67.4049 98.582 67.0618 97.5896C66.0874 94.7713 64.9321 93.5931 63.5957 94.0551C62.8282 94.3204 62.2172 94.7168 61.7626 95.2443ZM77.5795 91.4649L79.6482 90.5719C80.4421 90.2974 80.9786 90.5638 81.2576 91.3709C81.4177 91.834 81.6075 92.5757 81.8269 93.596C82.0463 94.6163 82.2613 95.4308 82.4717 96.0395C82.1592 96.2067 81.4868 96.6614 80.4546 97.4034C79.4356 98.1408 78.5424 98.6422 77.775 98.9075C75.8961 99.557 74.2724 99.4666 72.904 98.6361C71.5488 97.8011 70.5235 96.378 69.8282 94.3668C69.3342 92.9378 69.1393 91.5387 69.2437 90.1694C69.3612 88.7956 69.808 87.5598 70.5839 86.462C71.3598 85.3643 72.3696 84.6004 73.6134 84.1704C74.8704 83.7358 76.0163 83.6655 77.0512 83.9595C78.0993 84.249 78.7949 84.8899 79.1379 85.8822C79.3301 86.438 79.327 86.9649 79.1289 87.4629C78.9394 87.9432 78.5933 88.2703 78.0905 88.4441C77.5877 88.6179 77.2165 88.6796 76.9768 88.6291C76.9342 88.3772 76.8717 88.1322 76.7894 87.894C76.5469 87.1928 76.1517 86.6924 75.6038 86.393C75.0514 86.0804 74.4113 86.0498 73.6835 86.3014C72.9558 86.553 72.3524 87.0357 71.8733 87.7494C71.6771 88.4245 71.6356 89.2684 71.7486 90.2811C71.8617 91.2937 72.0715 92.2433 72.378 93.1298C72.872 94.5588 73.557 95.6403 74.4329 96.3744C75.3043 97.0953 76.342 97.2476 77.5461 96.8313C78.4326 96.5248 79.1704 95.9809 79.7594 95.1996C79.6339 94.6652 79.4042 93.9151 79.0703 92.9492C78.5959 93.291 78.2132 93.5122 77.9221 93.6128C77.1944 93.8644 76.6978 93.6065 76.4325 92.839C76.3182 92.5083 76.2631 92.1347 76.2673 91.7185C76.6657 91.7141 77.1031 91.6295 77.5795 91.4649ZM91.0303 83.7262C91.1991 85.3713 91.5488 86.9613 92.0794 88.4962C92.6055 90.0178 93.2989 91.4668 94.1599 92.843C93.7384 93.1665 93.2763 93.4151 92.7735 93.5889C92.2707 93.7627 91.8697 93.7384 91.5706 93.5159C91.267 93.2802 91.0191 92.8845 90.8269 92.3288C90.6302 91.7598 90.4486 90.956 90.2821 89.9174C90.038 92.2534 89.5708 93.837 88.8805 94.6682C88.5659 95.0436 88.1968 95.3045 87.7734 95.4508C86.7678 95.7985 85.8591 95.6979 85.0472 95.1491C84.2307 94.587 83.6304 93.7502 83.2461 92.6388C82.6606 90.9451 82.618 89.3008 83.1183 87.7058C83.614 86.0975 84.6095 85.035 86.1046 84.518C87.613 83.9966 89.2549 83.7326 91.0303 83.7262ZM88.8419 85.8159C88.0675 85.8466 87.4355 85.9466 86.9459 86.1159C85.9535 86.459 85.288 86.9334 84.9494 87.5393C84.8838 88.8063 85.05 90.0154 85.4479 91.1665C85.6584 91.7752 85.9637 92.3584 86.3639 92.9163C86.7774 93.4695 87.1826 93.6776 87.5796 93.5403C88.0427 93.3802 88.4025 92.493 88.6591 90.8785C88.9157 89.2641 88.9766 87.5765 88.8419 85.8159ZM108.398 79.2104L109.668 83.5264C110.112 84.8099 110.718 85.9631 111.487 86.9862C111.171 87.2731 110.775 87.4988 110.299 87.6635C109.174 88.0523 108.394 87.6182 107.96 86.3612C107.763 85.7923 107.507 84.8144 107.19 83.4277C106.869 82.0278 106.649 81.1558 106.53 80.8118C106.301 80.1502 105.916 79.9132 105.373 80.1007C104.778 80.3066 104.274 81.1623 103.861 82.6678C103.462 84.1687 103.381 85.2632 103.619 85.9512C104.046 86.9736 104.59 87.9483 105.252 88.8751C104.804 89.2077 104.408 89.4335 104.064 89.5524C102.939 89.9412 102.159 89.5072 101.725 88.2501C101.542 87.7209 101.308 86.8092 101.024 85.5151C100.739 84.221 100.542 83.4152 100.432 83.0977C100.204 82.4361 99.7915 82.2082 99.1961 82.4141C98.7859 82.5559 98.4214 83.0226 98.1026 83.8142C97.7837 84.6058 97.5671 85.4362 97.4528 86.3052C97.3471 87.1565 97.3566 87.805 97.4811 88.2508C97.9406 89.3658 98.4274 90.3455 98.9415 91.1899C98.573 91.4951 98.1572 91.7277 97.6941 91.8878C97.2442 92.0433 96.8372 92.0655 96.4729 91.9545C96.1172 91.8256 95.8731 91.5693 95.7404 91.1856C95.6032 90.7886 95.4203 90.0668 95.1917 89.02C94.9586 87.96 94.6705 86.9338 94.3274 85.9415C93.9798 84.9359 93.4296 83.8373 92.677 82.6458C93.0455 82.3407 93.468 82.1057 93.9443 81.9411C94.4206 81.7764 94.8524 81.7827 95.2395 81.9599C95.6399 82.1325 95.9202 82.4504 96.0803 82.9135C96.1626 83.1517 96.3176 83.7499 96.5452 84.7081C96.7328 83.6656 97.094 82.6964 97.6286 81.8005C98.1586 80.8915 98.8008 80.3065 99.555 80.0458C100.891 79.5838 101.807 80.0673 102.301 81.4963C102.424 81.8536 102.542 82.2574 102.653 82.7077C102.822 81.6123 103.169 80.5812 103.694 79.6147C104.233 78.6435 104.885 78.0253 105.653 77.7599C106.989 77.2979 107.904 77.7814 108.398 79.2104ZM113.777 81.2839C114.106 82.2366 114.519 82.9382 115.015 83.3887C115.507 83.826 116.11 83.9212 116.825 83.6741C117.539 83.4271 118.013 82.9968 118.245 82.3833C118.486 81.7519 118.488 81.0922 118.25 80.4041C118.7 80.2486 119.129 80.2261 119.537 80.3367C119.946 80.4473 120.219 80.701 120.356 81.098C120.64 81.9184 120.441 82.7573 119.76 83.615C119.074 84.4594 118.248 85.0486 117.282 85.3825C115.774 85.904 114.543 85.8778 113.589 85.304C112.63 84.7169 111.874 83.6228 111.321 82.0218C110.767 80.4208 110.753 78.9223 111.278 77.5262C111.811 76.1124 112.832 75.1447 114.34 74.6232C115.372 74.2664 116.282 74.2187 117.068 74.48C117.863 74.7236 118.433 75.3415 118.776 76.3339C119.114 77.313 118.92 78.2095 118.195 79.0234C117.477 79.8194 116.477 80.4393 115.193 80.883C114.744 81.0386 114.271 81.1722 113.777 81.2839ZM113.254 79.7091C113.679 79.6513 114.109 79.5469 114.546 79.3959C115.499 79.0666 116.237 78.6112 116.762 78.0298C116.732 77.6848 116.685 77.4197 116.621 77.2344C116.461 76.7713 116.174 76.4779 115.761 76.3541C115.348 76.2303 114.85 76.269 114.268 76.4703C113.699 76.667 113.247 77.0306 112.912 77.5612C112.912 78.3316 113.026 79.0476 113.254 79.7091ZM126.036 81.8231C125.68 82.1236 125.271 82.354 124.808 82.5141C124.345 82.6742 123.931 82.6987 123.567 82.5876C123.211 82.4588 122.967 82.2025 122.834 81.8187C122.697 81.4218 122.51 80.6867 122.272 79.6135C122.034 78.5402 121.748 77.5207 121.415 76.5548C121.076 75.5756 120.528 74.4837 119.771 73.279C120.14 72.9738 120.529 72.7503 120.939 72.6085C121.349 72.4667 121.748 72.4844 122.135 72.6617C122.535 72.8343 122.816 73.1522 122.976 73.6153C123.058 73.8535 123.142 74.2245 123.227 74.7282C123.308 75.2188 123.383 75.5854 123.452 75.8282C123.561 74.4722 123.852 73.3421 124.324 72.4381C124.805 71.5163 125.397 70.9342 126.098 70.6917C126.587 70.5225 127.037 70.5595 127.447 70.8029C127.857 71.0463 128.154 71.4326 128.337 71.9619C128.515 72.4779 128.529 72.9471 128.379 73.3694C128.224 73.7784 127.948 74.0515 127.551 74.1888C127.168 74.3214 126.843 74.3892 126.577 74.3922C126.562 74.2197 126.532 74.0673 126.486 73.935C126.298 73.3925 126.013 73.1875 125.629 73.3202C125.047 73.5215 124.701 74.3001 124.592 75.6561C124.492 76.9943 124.532 78.2026 124.712 79.2809C125.122 80.2504 125.563 81.0978 126.036 81.8231Z" fill="white"/>
</svg>
